<?xml version="1.0" encoding="iso-8859-1"?>
<!-- Generator: Adobe Illustrator 26.0.1, SVG Export Plug-In . SVG Version: 6.00 Build 0)  -->
<svg version="1.1" id="Layer_1" xmlns="http://www.w3.org/2000/svg" xmlns:xlink="http://www.w3.org/1999/xlink" x="0px" y="0px"
	 viewBox="0 0 500 500" style="enable-background:new 0 0 500 500;" xml:space="preserve">
<g id="watermark_1_">
	<g>
		<g id="watermark" style="opacity:0.61;">
			<g>
				<g>
					<g>
						<g>
							<polygon style="fill:#FFFFFF;" points="213.765,461.172 208.204,474.017 205.268,474.017 199.726,461.172 202.938,461.172 
								206.846,470.347 210.81,461.172 							"/>
						</g>
						<g>
							<path style="fill:#FFFFFF;" d="M223.507,469.741h-7.469c0.275,1.23,1.321,1.982,2.826,1.982c1.046,0,1.798-0.312,2.477-0.954
								l1.523,1.651c-0.917,1.046-2.294,1.597-4.074,1.597c-3.413,0-5.634-2.147-5.634-5.083c0-2.954,2.257-5.083,5.267-5.083
								c2.899,0,5.138,1.945,5.138,5.12C223.562,469.191,223.526,469.503,223.507,469.741 M216.002,468.071h4.863
								c-0.202-1.248-1.138-2.055-2.422-2.055C217.139,466.016,216.204,466.805,216.002,468.071"/>
						</g>
						<g>
							<path style="fill:#FFFFFF;" d="M224.735,468.934c0-2.973,2.294-5.083,5.505-5.083c2.074,0,3.707,0.899,4.423,2.514
								l-2.22,1.193c-0.532-0.936-1.321-1.358-2.221-1.358c-1.45,0-2.587,1.009-2.587,2.734c0,1.725,1.138,2.734,2.587,2.734
								c0.899,0,1.688-0.404,2.221-1.358l2.22,1.211c-0.716,1.578-2.349,2.495-4.423,2.495
								C227.029,474.017,224.735,471.907,224.735,468.934"/>
						</g>
						<g>
							<path style="fill:#FFFFFF;" d="M242.828,473.393c-0.587,0.422-1.45,0.624-2.331,0.624c-2.33,0-3.688-1.193-3.688-3.542
								v-4.055h-1.523v-2.202h1.523v-2.404h2.863v2.404h2.459v2.202h-2.459v4.019c0,0.844,0.458,1.303,1.229,1.303
								c0.422,0,0.844-0.128,1.156-0.367L242.828,473.393z"/>
						</g>
					</g>
					<g>
						<path style="fill:#FFFFFF;" d="M262.474,463.997v2.643c-0.238-0.018-0.422-0.037-0.642-0.037
							c-1.578,0-2.624,0.862-2.624,2.753v4.661h-2.863v-9.873h2.734v1.303C259.776,464.493,260.951,463.997,262.474,463.997"/>
					</g>
					<g>
						<path style="fill:#FFFFFF;" d="M263.299,472.53l1.009-2.239c1.083,0.789,2.697,1.339,4.239,1.339
							c1.762,0,2.477-0.587,2.477-1.376c0-2.404-7.469-0.752-7.469-5.524c0-2.184,1.762-4,5.413-4c1.615,0,3.267,0.385,4.459,1.138
							l-0.918,2.257c-1.193-0.679-2.422-1.009-3.56-1.009c-1.761,0-2.44,0.66-2.44,1.468c0,2.367,7.468,0.734,7.468,5.45
							c0,2.147-1.78,3.982-5.45,3.982C266.492,474.017,264.437,473.411,263.299,472.53"/>
					</g>
					<g>
						<path style="fill:#FFFFFF;" d="M285.428,469.741h-7.469c0.275,1.23,1.321,1.982,2.826,1.982c1.046,0,1.798-0.312,2.477-0.954
							l1.523,1.651c-0.918,1.046-2.294,1.597-4.074,1.597c-3.413,0-5.634-2.147-5.634-5.083c0-2.954,2.257-5.083,5.267-5.083
							c2.9,0,5.138,1.945,5.138,5.12C285.484,469.191,285.447,469.503,285.428,469.741 M277.923,468.071h4.863
							c-0.202-1.248-1.138-2.055-2.422-2.055C279.061,466.016,278.125,466.805,277.923,468.071"/>
					</g>
					<g>
						<path style="fill:#FFFFFF;" d="M297.007,469.741h-7.469c0.275,1.23,1.321,1.982,2.826,1.982c1.046,0,1.798-0.312,2.477-0.954
							l1.523,1.651c-0.918,1.046-2.294,1.597-4.074,1.597c-3.413,0-5.634-2.147-5.634-5.083c0-2.954,2.257-5.083,5.267-5.083
							c2.899,0,5.138,1.945,5.138,5.12C297.062,469.191,297.025,469.503,297.007,469.741 M289.501,468.071h4.863
							c-0.202-1.248-1.138-2.055-2.422-2.055C290.639,466.016,289.703,466.805,289.501,468.071"/>
					</g>
					<g>
						<polygon style="fill:#FFFFFF;" points="303.208,470.145 301.831,471.503 301.831,474.017 298.969,474.017 298.969,460.401 
							301.831,460.401 301.831,468.108 306.016,464.144 309.429,464.144 305.318,468.328 309.796,474.017 306.327,474.017 						"/>
					</g>
					<g>
						<path style="fill:#FFFFFF;" d="M256.601,475.359L256.601,475.359l-2.86-2.86c-0.435,0.508-0.953,0.943-1.534,1.284
							c-0.092,0.069-0.186,0.136-0.283,0.199l3.027,3.027c0.456,0.456,1.195,0.456,1.65,0
							C257.057,476.554,257.057,475.815,256.601,475.359"/>
					</g>
					<g>
						<path style="fill:#FFFFFF;" d="M249.984,463.244c0.221-0.173,0.495-0.281,0.797-0.281c0.042,0,0.083,0.002,0.124,0.006
							c-0.214-0.156-0.478-0.249-0.764-0.249c-0.395,0-0.744,0.18-0.981,0.458c-0.051,0-0.1,0.006-0.151,0.008
							c0.039-0.077,0.064-0.162,0.064-0.255c0-0.234-0.143-0.434-0.346-0.519c0.087,0.126,0.138,0.279,0.138,0.445
							c0,0.122-0.031,0.237-0.081,0.341c-2.811,0.201-5.03,2.539-5.03,5.4c0,2.993,2.426,5.42,5.42,5.42
							c2.993,0,5.42-2.426,5.42-5.42C254.595,465.879,252.593,463.635,249.984,463.244 M247.983,464.656
							c0.435,0,0.844,0.112,1.199,0.309c0.374-0.245,0.82-0.387,1.299-0.387c0.711,0,1.348,0.312,1.784,0.806
							c-0.435-0.379-1.004-0.61-1.627-0.61c-0.449,0-0.87,0.12-1.234,0.329c-0.079,0.046-0.156,0.096-0.229,0.15
							c-0.065-0.048-0.133-0.093-0.204-0.134c-0.369-0.219-0.8-0.344-1.26-0.344c-0.3,0-0.588,0.054-0.854,0.152
							C247.196,464.754,247.578,464.656,247.983,464.656 M251.772,469.098c0.115,0.305,0.181,0.634,0.181,0.979
							c0,1.534-1.244,2.777-2.778,2.777c-1.534,0-2.777-1.243-2.777-2.777c0-0.345,0.066-0.674,0.181-0.979
							c-0.62-0.382-1.035-1.064-1.035-1.846c0-1.197,0.971-2.168,2.168-2.168c0.565,0,1.078,0.218,1.463,0.572
							c0.386-0.354,0.899-0.572,1.464-0.572c1.197,0,2.168,0.971,2.168,2.168C252.807,468.034,252.392,468.716,251.772,469.098"/>
					</g>
					<g>
						<path style="fill:#FFFFFF;" d="M251.666,467.061c0,0.497-0.404,0.901-0.901,0.901c-0.497,0-0.901-0.404-0.901-0.901
							s0.404-0.901,0.901-0.901c0.101,0,0.197,0.017,0.287,0.047c-0.03,0.062-0.045,0.132-0.045,0.204
							c0,0.273,0.221,0.494,0.494,0.494c0.05,0,0.099-0.008,0.146-0.022C251.66,466.941,251.666,467,251.666,467.061"/>
					</g>
					<g>
						<path style="fill:#FFFFFF;" d="M248.255,467.061c0,0.376-0.305,0.681-0.681,0.681c-0.376,0-0.681-0.305-0.681-0.681
							s0.305-0.681,0.681-0.681c0.076,0,0.149,0.013,0.217,0.035c-0.023,0.047-0.034,0.1-0.034,0.155
							c0,0.206,0.167,0.374,0.374,0.374c0.038,0,0.075-0.006,0.11-0.017C248.25,466.97,248.255,467.015,248.255,467.061"/>
					</g>
					<g>
						<g>
							<g>
								<rect x="242.908" y="467.83" style="fill:#FFFFFF;" width="0.616" height="0.616"/>
							</g>
							<g>
								<rect x="254.827" y="467.83" style="fill:#FFFFFF;" width="0.616" height="0.616"/>
							</g>
							<g>
								<path style="fill:#FFFFFF;" d="M255.205,468.082h-0.14c0-3.248-2.642-5.89-5.89-5.89c-3.248,0-5.89,2.642-5.89,5.89h-0.14
									c0-1.611,0.627-3.125,1.766-4.264c1.139-1.139,2.653-1.766,4.264-1.766c1.611,0,3.125,0.627,4.264,1.766
									C254.578,464.957,255.205,466.471,255.205,468.082"/>
							</g>
						</g>
						<g>
							<rect x="248.868" y="461.814" style="fill:#FFFFFF;" width="0.616" height="0.616"/>
						</g>
						<g>
							<rect x="244.95" y="462.052" style="fill:#FFFFFF;" width="8.45" height="0.14"/>
						</g>
						<g>
							<path style="fill:#FFFFFF;" d="M245.174,462.15c0,0.108-0.088,0.196-0.196,0.196c-0.108,0-0.196-0.088-0.196-0.196
								c0-0.108,0.088-0.196,0.196-0.196C245.086,461.954,245.174,462.042,245.174,462.15"/>
						</g>
						<g>
							<path style="fill:#FFFFFF;" d="M253.596,462.15c0,0.108-0.088,0.196-0.196,0.196c-0.108,0-0.196-0.088-0.196-0.196
								c0-0.108,0.088-0.196,0.196-0.196C253.509,461.954,253.596,462.042,253.596,462.15"/>
						</g>
					</g>
				</g>
				<g>
					<path style="fill:#FFFFFF;" d="M314.356,473.409c0,1.559-2.364,1.559-2.364,0C311.993,471.851,314.356,471.851,314.356,473.409
						z"/>
				</g>
				<g>
					<g>
						<g>
							<path style="fill:#FFFFFF;" d="M161.739,466.549l1.772,6.088l1.855-6.088h2.215l-2.823,8.14h-2.33l-0.837-2.396l-0.722-2.708
								l-0.722,2.708l-0.837,2.396h-2.33l-2.839-8.14h2.231l1.855,6.088l1.756-6.088H161.739z"/>
						</g>
						<g>
							<path style="fill:#FFFFFF;" d="M176.713,466.549l1.772,6.088l1.855-6.088h2.215l-2.823,8.14h-2.33l-0.837-2.396l-0.722-2.708
								l-0.722,2.708l-0.837,2.396h-2.33l-2.839-8.14h2.231l1.855,6.088l1.756-6.088H176.713z"/>
						</g>
						<g>
							<path style="fill:#FFFFFF;" d="M191.687,466.549l1.772,6.088l1.855-6.088h2.215l-2.823,8.14h-2.33l-0.837-2.396l-0.722-2.708
								l-0.722,2.708l-0.837,2.396h-2.33l-2.839-8.14h2.231l1.855,6.088l1.756-6.088H191.687z"/>
						</g>
					</g>
					<g>
						<path style="fill:#FFFFFF;" d="M200.908,473.52c0,1.559-2.364,1.559-2.364,0C198.545,471.962,200.908,471.962,200.908,473.52z
							"/>
					</g>
					<g>
						<path style="fill:#FFFFFF;" d="M322.71,473.409c-0.935,0.919-1.919,1.28-3.117,1.28c-2.346,0-4.3-1.411-4.3-4.282
							s1.953-4.284,4.3-4.284c1.149,0,2.035,0.329,2.921,1.199l-1.264,1.329c-0.476-0.428-1.066-0.64-1.623-0.64
							c-1.346,0-2.33,0.985-2.33,2.396c0,1.542,1.05,2.362,2.297,2.362c0.64,0,1.28-0.18,1.772-0.672L322.71,473.409z"/>
					</g>
					<g>
						<path style="fill:#FFFFFF;" d="M331.805,470.472c0,2.33-1.591,4.217-4.217,4.217c-2.626,0-4.201-1.887-4.201-4.217
							c0-2.314,1.609-4.217,4.185-4.217C330.149,466.255,331.805,468.158,331.805,470.472z M325.389,470.472
							c0,1.231,0.739,2.38,2.199,2.38c1.46,0,2.199-1.149,2.199-2.38c0-1.215-0.854-2.396-2.199-2.396
							C326.144,468.077,325.389,469.258,325.389,470.472z"/>
					</g>
					<g>
						<path style="fill:#FFFFFF;" d="M338.572,474.689v-4.332c0-1.068-0.559-2.035-1.658-2.035c-1.082,0-1.722,0.967-1.722,2.035
							v4.332h-2.003v-8.107h1.855l0.148,0.985c0.426-0.82,1.362-1.116,2.133-1.116c0.969,0,1.937,0.394,2.396,1.51
							c0.723-1.149,1.658-1.478,2.708-1.478c2.297,0,3.43,1.412,3.43,3.84v4.365h-2.003v-4.365c0-1.066-0.442-1.97-1.526-1.97
							c-1.082,0-1.756,0.935-1.756,2.003v4.332H338.572z"/>
					</g>
				</g>
			</g>
		</g>
		<g style="opacity:0.61;">
			<g>
				<g>
					<path style="fill:#FFFFFF;" d="M345.988,431.299c-0.006-1.224-0.959-2.121-2.189-2.14c-0.924-0.014-0.832,0.12-0.834-0.867
						c-0.003-1.097-0.007-2.194,0.003-3.292c0.003-0.379-0.112-0.691-0.362-0.976c-2.342-2.668-4.678-5.342-7.019-8.011
						c-0.12-0.137-0.275-0.244-0.414-0.366c-6.214,0-12.427,0-18.641,0c-0.794,0.293-1.14,0.868-1.138,1.709
						c0.01,3.748,0.004,7.496,0.004,11.243c0,0.556-0.003,0.589-0.55,0.551c-1.497-0.102-2.516,0.986-2.497,2.492
						c0.044,3.476,0.013,6.953,0.014,10.429c0.001,1.58,0.867,2.443,2.45,2.449c0.582,0.002,0.582,0.002,0.582,0.6
						c0,2.219-0.001,4.438,0.001,6.657c0.001,1.192,0.58,1.771,1.768,1.771c8.013,0.001,16.027,0.001,24.04,0
						c1.168,0,1.755-0.583,1.757-1.745c0.002-2.256,0-4.512,0.001-6.768c0-0.512,0.002-0.511,0.52-0.515
						c0.271-0.002,0.541,0.008,0.809-0.058c0.996-0.246,1.69-1.044,1.694-2.069C346.003,438.696,346.005,434.997,345.988,431.299z
						 M317.537,417.162c5.337,0,10.674,0,16.01,0c0.548,0,0.554,0.007,0.554,0.561c0.001,2.243-0.001,4.486,0.001,6.73
						c0.001,0.811,0.249,1.059,1.06,1.059c1.91,0.001,3.821,0,5.731,0.001c0.458,0,0.479,0.021,0.481,0.483
						c0.003,0.887,0.002,1.775,0,2.662c-0.001,0.477-0.024,0.498-0.504,0.499c-3.895,0.001-7.79,0-11.684,0
						c-3.882,0-7.765,0-11.647,0c-0.55,0-0.552-0.001-0.552-0.561c-0.001-3.624-0.001-7.247,0-10.871
						C316.987,417.166,316.991,417.162,317.537,417.162z M340.822,451.579c-3.883,0.001-7.766,0-11.65,0c-3.871,0-7.742,0-11.613,0
						c-0.572,0-0.574-0.002-0.574-0.579c-0.001-1.997-0.001-3.994,0.001-5.991c0-0.464,0.023-0.486,0.478-0.487
						c7.803-0.001,15.607-0.001,23.41,0c0.478,0,0.499,0.02,0.499,0.503c0.002,1.997,0.001,3.994,0,5.991
						C341.375,451.574,341.37,451.579,340.822,451.579z"/>
				</g>
				<g>
					<g>
						<rect x="327.418" y="417.053" style="fill:#FFFFFF;" width="1.757" height="1.054"/>
					</g>
					<g>
						<rect x="325.662" y="418.107" style="fill:#FFFFFF;" width="1.757" height="1.054"/>
					</g>
					<g>
						<rect x="327.418" y="419.161" style="fill:#FFFFFF;" width="1.757" height="1.054"/>
					</g>
					<g>
						<rect x="325.662" y="420.215" style="fill:#FFFFFF;" width="1.757" height="1.054"/>
					</g>
					<g>
						<rect x="327.418" y="421.269" style="fill:#FFFFFF;" width="1.757" height="1.054"/>
					</g>
					<g>
						<rect x="325.662" y="422.323" style="fill:#FFFFFF;" width="1.757" height="1.054"/>
					</g>
					<g>
						<rect x="327.418" y="423.378" style="fill:#FFFFFF;" width="1.757" height="1.054"/>
					</g>
					<g>
						<rect x="325.662" y="424.432" style="fill:#FFFFFF;" width="1.757" height="1.054"/>
					</g>
					<g>
						<rect x="327.418" y="425.486" style="fill:#FFFFFF;" width="1.757" height="1.054"/>
					</g>
					<g>
						<rect x="325.662" y="426.54" style="fill:#FFFFFF;" width="1.757" height="1.054"/>
					</g>
					<g>
						<rect x="327.418" y="427.594" style="fill:#FFFFFF;" width="1.757" height="1.054"/>
					</g>
					<g>
						<rect x="325.662" y="428.648" style="fill:#FFFFFF;" width="1.757" height="1.054"/>
					</g>
				</g>
			</g>
			<g>
				<path style="fill:#FFFFFF;" d="M187.637,431.299c-0.006-1.224-0.959-2.121-2.189-2.14c-0.924-0.014-0.832,0.12-0.834-0.867
					c-0.003-1.097-0.007-2.194,0.003-3.292c0.003-0.379-0.112-0.691-0.362-0.976c-2.342-2.668-4.678-5.342-7.019-8.011
					c-0.12-0.137-0.275-0.244-0.414-0.366c-6.214,0-12.427,0-18.641,0c-0.794,0.293-1.14,0.868-1.138,1.709
					c0.01,3.748,0.004,7.496,0.004,11.243c0,0.556-0.003,0.589-0.55,0.551c-1.497-0.102-2.516,0.986-2.497,2.492
					c0.044,3.476,0.013,6.953,0.014,10.429c0.001,1.58,0.867,2.443,2.45,2.449c0.582,0.002,0.582,0.002,0.582,0.6
					c0,2.219-0.001,4.438,0.001,6.657c0.001,1.192,0.58,1.771,1.768,1.771c8.013,0.001,16.027,0.001,24.04,0
					c1.168,0,1.755-0.583,1.757-1.745c0.002-2.256,0-4.512,0.001-6.768c0-0.512,0.002-0.511,0.52-0.515
					c0.271-0.002,0.541,0.008,0.809-0.058c0.996-0.246,1.69-1.044,1.694-2.069C187.652,438.696,187.655,434.997,187.637,431.299z
					 M159.187,417.162c5.337,0,10.674,0,16.01,0c0.548,0,0.554,0.007,0.554,0.561c0.001,2.243-0.001,4.486,0.001,6.73
					c0.001,0.811,0.249,1.059,1.06,1.059c1.91,0.001,3.821,0,5.731,0.001c0.458,0,0.479,0.021,0.481,0.483
					c0.003,0.887,0.002,1.775,0,2.662c-0.001,0.477-0.024,0.498-0.504,0.499c-3.895,0.001-7.79,0-11.684,0
					c-3.882,0-7.765,0-11.647,0c-0.55,0-0.552-0.001-0.552-0.561c-0.001-3.624-0.001-7.247,0-10.871
					C158.636,417.166,158.64,417.162,159.187,417.162z M182.472,451.579c-3.883,0.001-7.766,0-11.65,0c-3.871,0-7.742,0-11.613,0
					c-0.572,0-0.574-0.002-0.574-0.579c-0.001-1.997-0.001-3.994,0.001-5.991c0-0.464,0.023-0.486,0.478-0.487
					c7.803-0.001,15.607-0.001,23.41,0c0.478,0,0.499,0.02,0.499,0.503c0.002,1.997,0.001,3.994,0,5.991
					C183.024,451.574,183.019,451.579,182.472,451.579z"/>
			</g>
			<g>
				<path style="fill:#FFFFFF;" d="M159.779,440.669v-7.897h2.779c0.375,0,0.726,0.061,1.053,0.182
					c0.327,0.121,0.612,0.292,0.855,0.513c0.242,0.221,0.434,0.483,0.573,0.789c0.14,0.305,0.21,0.642,0.21,1.009
					c0,0.375-0.07,0.715-0.21,1.02c-0.14,0.305-0.331,0.568-0.573,0.789c-0.243,0.221-0.528,0.392-0.855,0.513
					c-0.327,0.121-0.678,0.182-1.053,0.182h-1.29v2.901H159.779z M162.58,436.356c0.39,0,0.684-0.111,0.882-0.331
					c0.199-0.22,0.298-0.474,0.298-0.761c0-0.14-0.024-0.276-0.072-0.408c-0.048-0.132-0.121-0.248-0.221-0.347
					c-0.099-0.099-0.223-0.178-0.37-0.237c-0.147-0.059-0.32-0.089-0.518-0.089h-1.312v2.173H162.58z"/>
				<path style="fill:#FFFFFF;" d="M166.308,432.771h1.731l3.177,5.294h0.088l-0.088-1.522v-3.772h1.478v7.897h-1.566l-3.353-5.592
					h-0.088l0.088,1.522v4.07h-1.467V432.771z"/>
				<path style="fill:#FFFFFF;" d="M177.922,436.334h3.872c0.022,0.089,0.04,0.195,0.055,0.32c0.014,0.125,0.022,0.25,0.022,0.375
					c0,0.507-0.077,0.985-0.231,1.434c-0.154,0.449-0.397,0.849-0.728,1.202c-0.353,0.375-0.776,0.666-1.268,0.871
					c-0.493,0.206-1.055,0.309-1.688,0.309c-0.574,0-1.114-0.103-1.622-0.309c-0.507-0.206-0.948-0.492-1.323-0.86
					c-0.375-0.367-0.673-0.803-0.894-1.307c-0.221-0.504-0.331-1.053-0.331-1.649c0-0.595,0.11-1.145,0.331-1.649
					c0.221-0.504,0.518-0.939,0.894-1.307c0.375-0.367,0.816-0.654,1.323-0.86c0.507-0.206,1.048-0.309,1.622-0.309
					c0.64,0,1.211,0.11,1.715,0.331c0.504,0.221,0.935,0.526,1.296,0.915l-1.025,1.004c-0.258-0.272-0.544-0.48-0.861-0.623
					c-0.316-0.143-0.695-0.215-1.136-0.215c-0.361,0-0.703,0.065-1.026,0.193c-0.324,0.129-0.607,0.311-0.85,0.546
					c-0.242,0.235-0.436,0.52-0.579,0.855c-0.143,0.335-0.215,0.708-0.215,1.119c0,0.412,0.072,0.785,0.215,1.12
					c0.143,0.335,0.338,0.62,0.584,0.855c0.246,0.235,0.531,0.418,0.855,0.546c0.323,0.129,0.669,0.193,1.037,0.193
					c0.419,0,0.773-0.061,1.064-0.182c0.29-0.121,0.538-0.278,0.744-0.469c0.148-0.132,0.275-0.3,0.381-0.502
					c0.106-0.202,0.189-0.428,0.248-0.678h-2.482V436.334z"/>
			</g>
			<g>
				<path style="fill:#FFFFFF;" d="M224.019,431.299c-0.006-1.224-0.959-2.121-2.189-2.14c-0.924-0.014-0.832,0.12-0.834-0.867
					c-0.003-1.097-0.007-2.194,0.003-3.292c0.003-0.379-0.112-0.691-0.362-0.976c-2.342-2.668-4.678-5.342-7.019-8.011
					c-0.12-0.137-0.275-0.244-0.414-0.366c-6.214,0-12.427,0-18.641,0c-0.794,0.293-1.14,0.868-1.138,1.709
					c0.01,3.748,0.004,7.496,0.004,11.243c0,0.556-0.003,0.589-0.55,0.551c-1.497-0.102-2.516,0.986-2.497,2.492
					c0.044,3.476,0.013,6.953,0.014,10.429c0.001,1.58,0.867,2.443,2.45,2.449c0.582,0.002,0.582,0.002,0.582,0.6
					c0,2.219-0.001,4.438,0.001,6.657c0.001,1.192,0.58,1.771,1.768,1.771c8.013,0.001,16.027,0.001,24.04,0
					c1.168,0,1.755-0.583,1.757-1.745c0.002-2.256,0-4.512,0.001-6.768c0-0.512,0.002-0.511,0.52-0.515
					c0.271-0.002,0.541,0.008,0.809-0.058c0.997-0.246,1.69-1.044,1.694-2.069C224.034,438.696,224.036,434.997,224.019,431.299z
					 M195.568,417.162c5.337,0,10.674,0,16.01,0c0.548,0,0.554,0.007,0.554,0.561c0.001,2.243-0.001,4.486,0.001,6.73
					c0.001,0.811,0.249,1.059,1.06,1.059c1.91,0.001,3.821,0,5.731,0.001c0.458,0,0.479,0.021,0.481,0.483
					c0.003,0.887,0.002,1.775,0,2.662c-0.001,0.477-0.024,0.498-0.504,0.499c-3.895,0.001-7.79,0-11.684,0
					c-3.882,0-7.765,0-11.647,0c-0.55,0-0.552-0.001-0.552-0.561c-0.001-3.624-0.001-7.247,0-10.871
					C195.018,417.166,195.022,417.162,195.568,417.162z M218.854,451.579c-3.883,0.001-7.766,0-11.65,0c-3.871,0-7.742,0-11.613,0
					c-0.572,0-0.574-0.002-0.574-0.579c-0.001-1.997-0.001-3.994,0.001-5.991c0-0.464,0.023-0.486,0.478-0.487
					c7.803-0.001,15.607-0.001,23.41,0c0.478,0,0.499,0.02,0.499,0.503c0.002,1.997,0.001,3.994,0,5.991
					C219.406,451.574,219.401,451.579,218.854,451.579z"/>
			</g>
			<g>
				<path style="fill:#FFFFFF;" d="M205.111,432.771h1.699l2.967,7.897h-1.644l-0.651-1.886h-3.044l-0.651,1.886h-1.643
					L205.111,432.771z M206.997,437.415l-0.706-1.974l-0.287-0.96h-0.088l-0.287,0.96l-0.706,1.974H206.997z"/>
				<path style="fill:#FFFFFF;" d="M211.331,434.536c-0.125,0-0.245-0.024-0.359-0.072c-0.114-0.048-0.213-0.114-0.298-0.199
					c-0.084-0.084-0.151-0.182-0.198-0.292c-0.048-0.11-0.072-0.232-0.072-0.364s0.024-0.254,0.072-0.364
					c0.048-0.11,0.114-0.208,0.198-0.292c0.084-0.084,0.184-0.151,0.298-0.198c0.114-0.048,0.233-0.072,0.359-0.072
					c0.257,0,0.478,0.09,0.662,0.27c0.184,0.181,0.276,0.399,0.276,0.656s-0.092,0.476-0.276,0.656
					C211.809,434.446,211.589,434.536,211.331,434.536z M210.615,440.669v-5.404h1.445v5.404H210.615z"/>
			</g>
			<g>
				<path style="fill:#FFFFFF;" d="M261.044,431.299c-0.006-1.224-0.959-2.121-2.189-2.14c-0.924-0.014-0.832,0.12-0.834-0.867
					c-0.003-1.097-0.007-2.194,0.003-3.292c0.003-0.379-0.112-0.691-0.362-0.976c-2.342-2.668-4.678-5.342-7.019-8.011
					c-0.12-0.137-0.275-0.244-0.414-0.366c-6.214,0-12.427,0-18.641,0c-0.794,0.293-1.14,0.868-1.138,1.709
					c0.01,3.748,0.004,7.496,0.004,11.243c0,0.556-0.003,0.589-0.55,0.551c-1.497-0.102-2.516,0.986-2.497,2.492
					c0.044,3.476,0.013,6.953,0.014,10.429c0.001,1.58,0.867,2.443,2.45,2.449c0.582,0.002,0.582,0.002,0.582,0.6
					c0,2.219-0.001,4.438,0.001,6.657c0.001,1.192,0.58,1.771,1.768,1.771c8.013,0.001,16.027,0.001,24.04,0
					c1.168,0,1.755-0.583,1.757-1.745c0.002-2.256,0-4.512,0.001-6.768c0-0.512,0.002-0.511,0.52-0.515
					c0.271-0.002,0.541,0.008,0.809-0.058c0.996-0.246,1.69-1.044,1.694-2.069C261.059,438.696,261.061,434.997,261.044,431.299z
					 M232.593,417.162c5.337,0,10.674,0,16.01,0c0.548,0,0.554,0.007,0.554,0.561c0.001,2.243-0.001,4.486,0.001,6.73
					c0.001,0.811,0.249,1.059,1.06,1.059c1.91,0.001,3.821,0,5.731,0.001c0.458,0,0.479,0.021,0.481,0.483
					c0.003,0.887,0.002,1.775,0,2.662c-0.001,0.477-0.024,0.498-0.504,0.499c-3.895,0.001-7.79,0-11.684,0
					c-3.882,0-7.765,0-11.647,0c-0.55,0-0.552-0.001-0.552-0.561c-0.001-3.624-0.001-7.247,0-10.871
					C232.042,417.166,232.047,417.162,232.593,417.162z M255.878,451.579c-3.883,0.001-7.766,0-11.65,0c-3.871,0-7.742,0-11.613,0
					c-0.572,0-0.574-0.002-0.574-0.579c-0.001-1.997-0.001-3.994,0.001-5.991c0-0.464,0.023-0.486,0.478-0.487
					c7.803-0.001,15.607-0.001,23.41,0c0.478,0,0.499,0.02,0.499,0.503c0.002,1.997,0.001,3.994,0,5.991
					C256.431,451.574,256.426,451.579,255.878,451.579z"/>
			</g>
			<g>
				<path style="fill:#FFFFFF;" d="M236.361,440.845c-0.338,0-0.662-0.048-0.971-0.143c-0.309-0.095-0.592-0.239-0.849-0.43
					c-0.257-0.191-0.481-0.425-0.673-0.7c-0.191-0.276-0.342-0.597-0.452-0.965l1.401-0.551c0.103,0.397,0.283,0.726,0.54,0.987
					c0.257,0.261,0.596,0.392,1.015,0.392c0.154,0,0.303-0.02,0.447-0.061c0.143-0.04,0.272-0.099,0.386-0.176
					s0.204-0.175,0.27-0.292c0.066-0.118,0.099-0.254,0.099-0.408c0-0.147-0.026-0.279-0.077-0.397
					c-0.051-0.117-0.138-0.227-0.259-0.331c-0.121-0.103-0.28-0.202-0.475-0.298c-0.195-0.095-0.435-0.195-0.722-0.298l-0.485-0.176
					c-0.213-0.073-0.429-0.173-0.645-0.298c-0.217-0.125-0.413-0.276-0.59-0.452c-0.177-0.176-0.322-0.384-0.436-0.623
					c-0.114-0.239-0.171-0.509-0.171-0.81c0-0.309,0.06-0.597,0.182-0.866c0.121-0.268,0.294-0.503,0.518-0.706
					c0.224-0.202,0.492-0.36,0.805-0.474s0.66-0.171,1.042-0.171c0.397,0,0.74,0.053,1.031,0.16
					c0.291,0.107,0.537,0.243,0.739,0.408c0.202,0.165,0.366,0.348,0.491,0.546c0.125,0.199,0.217,0.386,0.276,0.563l-1.312,0.551
					c-0.074-0.221-0.208-0.419-0.402-0.596c-0.195-0.176-0.462-0.265-0.8-0.265c-0.324,0-0.592,0.075-0.805,0.226
					c-0.213,0.151-0.32,0.348-0.32,0.59c0,0.235,0.103,0.436,0.309,0.601c0.206,0.165,0.533,0.325,0.982,0.48l0.497,0.165
					c0.316,0.111,0.605,0.237,0.866,0.381c0.261,0.143,0.485,0.314,0.673,0.513c0.187,0.199,0.331,0.425,0.43,0.678
					c0.1,0.254,0.149,0.546,0.149,0.877c0,0.412-0.083,0.767-0.248,1.064c-0.165,0.298-0.377,0.542-0.634,0.734
					c-0.258,0.191-0.548,0.335-0.872,0.43C236.986,440.797,236.67,440.845,236.361,440.845z"/>
				<path style="fill:#FFFFFF;" d="M239.516,432.771h1.61l1.633,4.754l0.287,1.015h0.088l0.309-1.015l1.699-4.754h1.61l-2.879,7.897
					h-1.566L239.516,432.771z"/>
				<path style="fill:#FFFFFF;" d="M251.097,436.334h3.871c0.022,0.089,0.04,0.195,0.055,0.32c0.015,0.125,0.023,0.25,0.023,0.375
					c0,0.507-0.078,0.985-0.232,1.434c-0.154,0.449-0.397,0.849-0.728,1.202c-0.353,0.375-0.775,0.666-1.268,0.871
					c-0.493,0.206-1.055,0.309-1.688,0.309c-0.574,0-1.114-0.103-1.621-0.309c-0.507-0.206-0.949-0.492-1.324-0.86
					c-0.375-0.367-0.673-0.803-0.894-1.307c-0.22-0.504-0.331-1.053-0.331-1.649c0-0.595,0.11-1.145,0.331-1.649
					c0.221-0.504,0.518-0.939,0.894-1.307c0.375-0.367,0.816-0.654,1.324-0.86c0.507-0.206,1.047-0.309,1.621-0.309
					c0.64,0,1.211,0.11,1.715,0.331c0.504,0.221,0.936,0.526,1.296,0.915l-1.026,1.004c-0.257-0.272-0.544-0.48-0.861-0.623
					c-0.316-0.143-0.694-0.215-1.136-0.215c-0.36,0-0.702,0.065-1.026,0.193c-0.323,0.129-0.607,0.311-0.849,0.546
					c-0.243,0.235-0.436,0.52-0.579,0.855c-0.143,0.335-0.215,0.708-0.215,1.119c0,0.412,0.072,0.785,0.215,1.12
					c0.143,0.335,0.338,0.62,0.585,0.855c0.246,0.235,0.531,0.418,0.854,0.546c0.324,0.129,0.669,0.193,1.037,0.193
					c0.419,0,0.774-0.061,1.064-0.182c0.29-0.121,0.539-0.278,0.745-0.469c0.147-0.132,0.274-0.3,0.38-0.502
					c0.107-0.202,0.189-0.428,0.248-0.678h-2.482V436.334z"/>
			</g>
			<g>
				<path style="fill:#FFFFFF;" d="M297.3,431.299c-0.006-1.224-0.959-2.121-2.189-2.14c-0.924-0.014-0.832,0.12-0.834-0.867
					c-0.003-1.097-0.007-2.194,0.003-3.292c0.003-0.379-0.112-0.691-0.362-0.976c-2.342-2.668-4.678-5.342-7.019-8.011
					c-0.12-0.137-0.275-0.244-0.414-0.366c-6.214,0-12.427,0-18.641,0c-0.794,0.293-1.14,0.868-1.138,1.709
					c0.01,3.748,0.004,7.496,0.004,11.243c0,0.556-0.003,0.589-0.55,0.551c-1.497-0.102-2.516,0.986-2.497,2.492
					c0.044,3.476,0.013,6.953,0.014,10.429c0.001,1.58,0.867,2.443,2.45,2.449c0.582,0.002,0.582,0.002,0.582,0.6
					c0,2.219-0.001,4.438,0.001,6.657c0.001,1.192,0.58,1.771,1.768,1.771c8.013,0.001,16.027,0.001,24.04,0
					c1.168,0,1.755-0.583,1.757-1.745c0.002-2.256,0-4.512,0.001-6.768c0-0.512,0.002-0.511,0.52-0.515
					c0.271-0.002,0.541,0.008,0.809-0.058c0.996-0.246,1.69-1.044,1.694-2.069C297.315,438.696,297.318,434.997,297.3,431.299z
					 M268.85,417.162c5.337,0,10.674,0,16.01,0c0.548,0,0.554,0.007,0.554,0.561c0.001,2.243-0.001,4.486,0.001,6.73
					c0.001,0.811,0.249,1.059,1.06,1.059c1.91,0.001,3.821,0,5.731,0.001c0.458,0,0.479,0.021,0.481,0.483
					c0.003,0.887,0.002,1.775,0,2.662c-0.001,0.477-0.024,0.498-0.504,0.499c-3.895,0.001-7.79,0-11.684,0
					c-3.882,0-7.765,0-11.647,0c-0.55,0-0.552-0.001-0.552-0.561c-0.001-3.624-0.001-7.247,0-10.871
					C268.299,417.166,268.303,417.162,268.85,417.162z M292.135,451.579c-3.883,0.001-7.766,0-11.65,0c-3.871,0-7.742,0-11.613,0
					c-0.572,0-0.574-0.002-0.574-0.579c-0.001-1.997-0.001-3.994,0.001-5.991c0-0.464,0.023-0.486,0.478-0.487
					c7.803-0.001,15.607-0.001,23.41,0c0.478,0,0.499,0.02,0.499,0.503c0.001,1.997,0.001,3.994,0,5.991
					C292.687,451.574,292.682,451.579,292.135,451.579z"/>
			</g>
			<g>
				<path style="fill:#FFFFFF;" d="M272.966,434.183v1.831h3.165v1.412h-3.165v1.831h3.518v1.412h-5.007v-7.897h5.007v1.412H272.966
					z"/>
				<path style="fill:#FFFFFF;" d="M277.852,440.669v-7.897h2.779c0.375,0,0.726,0.061,1.053,0.182
					c0.327,0.121,0.612,0.292,0.855,0.513c0.243,0.221,0.434,0.483,0.574,0.789c0.14,0.305,0.209,0.642,0.209,1.009
					c0,0.375-0.07,0.715-0.209,1.02c-0.14,0.305-0.331,0.568-0.574,0.789c-0.243,0.221-0.528,0.392-0.855,0.513
					c-0.327,0.121-0.678,0.182-1.053,0.182h-1.29v2.901H277.852z M280.653,436.356c0.389,0,0.684-0.111,0.882-0.331
					c0.199-0.22,0.298-0.474,0.298-0.761c0-0.14-0.024-0.276-0.072-0.408c-0.048-0.132-0.121-0.248-0.221-0.347
					c-0.099-0.099-0.222-0.178-0.37-0.237c-0.147-0.059-0.32-0.089-0.518-0.089h-1.312v2.173H280.653z"/>
				<path style="fill:#FFFFFF;" d="M286.797,440.845c-0.338,0-0.662-0.048-0.971-0.143c-0.309-0.095-0.592-0.239-0.849-0.43
					c-0.257-0.191-0.482-0.425-0.673-0.7c-0.191-0.276-0.342-0.597-0.452-0.965l1.401-0.551c0.103,0.397,0.283,0.726,0.541,0.987
					c0.257,0.261,0.595,0.392,1.015,0.392c0.154,0,0.303-0.02,0.447-0.061c0.143-0.04,0.272-0.099,0.386-0.176
					c0.114-0.077,0.204-0.175,0.27-0.292c0.066-0.118,0.1-0.254,0.1-0.408c0-0.147-0.026-0.279-0.077-0.397
					c-0.051-0.117-0.138-0.227-0.259-0.331c-0.121-0.103-0.279-0.202-0.474-0.298c-0.195-0.095-0.436-0.195-0.723-0.298
					l-0.485-0.176c-0.213-0.073-0.428-0.173-0.645-0.298c-0.217-0.125-0.414-0.276-0.59-0.452c-0.176-0.176-0.322-0.384-0.436-0.623
					c-0.114-0.239-0.171-0.509-0.171-0.81c0-0.309,0.061-0.597,0.182-0.866c0.121-0.268,0.294-0.503,0.518-0.706
					c0.224-0.202,0.493-0.36,0.805-0.474c0.312-0.114,0.66-0.171,1.042-0.171c0.397,0,0.741,0.053,1.031,0.16
					c0.29,0.107,0.537,0.243,0.739,0.408c0.202,0.165,0.365,0.348,0.491,0.546c0.125,0.199,0.217,0.386,0.276,0.563l-1.312,0.551
					c-0.074-0.221-0.208-0.419-0.403-0.596c-0.195-0.176-0.462-0.265-0.799-0.265c-0.324,0-0.592,0.075-0.805,0.226
					c-0.213,0.151-0.32,0.348-0.32,0.59c0,0.235,0.103,0.436,0.309,0.601c0.206,0.165,0.533,0.325,0.982,0.48l0.496,0.165
					c0.316,0.111,0.605,0.237,0.866,0.381c0.261,0.143,0.485,0.314,0.673,0.513c0.187,0.199,0.331,0.425,0.43,0.678
					c0.099,0.254,0.149,0.546,0.149,0.877c0,0.412-0.083,0.767-0.248,1.064c-0.165,0.298-0.377,0.542-0.634,0.734
					c-0.258,0.191-0.548,0.335-0.872,0.43C287.422,440.797,287.105,440.845,286.797,440.845z"/>
			</g>
			<g>
				<path style="fill:#FFFFFF;" d="M321.394,439.168l4.004-4.985h-3.827v-1.412h5.559v1.5l-3.96,4.985h4.004v1.412h-5.779V439.168z"
					/>
				<path style="fill:#FFFFFF;" d="M328.409,432.771h1.489v7.897h-1.489V432.771z"/>
				<path style="fill:#FFFFFF;" d="M331.486,440.669v-7.897h2.779c0.375,0,0.726,0.061,1.053,0.182
					c0.327,0.121,0.612,0.292,0.855,0.513s0.434,0.483,0.574,0.789c0.14,0.305,0.209,0.642,0.209,1.009
					c0,0.375-0.07,0.715-0.209,1.02c-0.14,0.305-0.331,0.568-0.574,0.789c-0.243,0.221-0.528,0.392-0.855,0.513
					c-0.327,0.121-0.678,0.182-1.053,0.182h-1.29v2.901H331.486z M334.288,436.356c0.389,0,0.684-0.111,0.882-0.331
					c0.199-0.22,0.298-0.474,0.298-0.761c0-0.14-0.024-0.276-0.072-0.408c-0.048-0.132-0.121-0.248-0.221-0.347
					c-0.099-0.099-0.222-0.178-0.37-0.237c-0.147-0.059-0.32-0.089-0.518-0.089h-1.312v2.173H334.288z"/>
			</g>
		</g>
		<g style="opacity:0.61;">
			<path style="fill:#FFFFFF;" d="M300.133,433.27h9.067v2.242h-9.067V433.27z M300.133,437.136h9.067v2.243h-9.067V437.136z"/>
		</g>
	</g>
	<g style="opacity:0.61;">
		<path style="fill:#FFFFFF;" d="M156.756,478.878h1.607c1.263,0,2.114,0.812,2.114,1.974c0,1.161-0.851,1.973-2.114,1.973h-1.607
			V478.878z M158.34,482.464c1.049,0,1.725-0.665,1.725-1.612c0-0.947-0.677-1.613-1.725-1.613h-1.167v3.225H158.34z"/>
		<path style="fill:#FFFFFF;" d="M165.139,480.851c0-1.15,0.879-2.007,2.075-2.007c1.184,0,2.069,0.851,2.069,2.007
			c0,1.156-0.885,2.007-2.069,2.007C166.019,482.858,165.139,482.002,165.139,480.851z M168.866,480.851
			c0-0.942-0.705-1.635-1.652-1.635c-0.953,0-1.663,0.693-1.663,1.635c0,0.941,0.71,1.635,1.663,1.635
			C168.162,482.486,168.866,481.793,168.866,480.851z"/>
		<path style="fill:#FFFFFF;" d="M179.596,478.878l-1.331,3.947h-0.44l-1.156-3.366l-1.161,3.366h-0.434l-1.331-3.947h0.429
			l1.139,3.394l1.178-3.394h0.389l1.161,3.411l1.156-3.411H179.596z"/>
		<path style="fill:#FFFFFF;" d="M187.731,478.878v3.947h-0.344l-2.537-3.202v3.202h-0.417v-3.947h0.344l2.543,3.203v-3.203H187.731
			z"/>
		<path style="fill:#FFFFFF;" d="M193.093,478.878h0.417v3.586h2.21v0.361h-2.627V478.878z"/>
		<path style="fill:#FFFFFF;" d="M200.061,480.851c0-1.15,0.879-2.007,2.075-2.007c1.184,0,2.069,0.851,2.069,2.007
			c0,1.156-0.885,2.007-2.069,2.007C200.941,482.858,200.061,482.002,200.061,480.851z M203.788,480.851
			c0-0.942-0.705-1.635-1.652-1.635c-0.953,0-1.663,0.693-1.663,1.635c0,0.941,0.71,1.635,1.663,1.635
			C203.083,482.486,203.788,481.793,203.788,480.851z"/>
		<path style="fill:#FFFFFF;" d="M211.636,481.77h-2.199l-0.474,1.054h-0.434l1.804-3.947h0.412l1.804,3.947h-0.44L211.636,481.77z
			 M211.484,481.432l-0.947-2.12l-0.947,2.12H211.484z"/>
		<path style="fill:#FFFFFF;" d="M217.28,478.878h1.607c1.263,0,2.114,0.812,2.114,1.974c0,1.161-0.851,1.973-2.114,1.973h-1.607
			V478.878z M218.864,482.464c1.049,0,1.725-0.665,1.725-1.612c0-0.947-0.677-1.613-1.725-1.613h-1.167v3.225H218.864z"/>
		<path style="fill:#FFFFFF;" d="M234.041,481.77h-2.199l-0.474,1.054h-0.434l1.804-3.947h0.412l1.804,3.947h-0.44L234.041,481.77z
			 M233.889,481.432l-0.947-2.12l-0.947,2.12H233.889z"/>
		<path style="fill:#FFFFFF;" d="M239.685,478.878h0.417v3.586h2.21v0.361h-2.627V478.878z"/>
		<path style="fill:#FFFFFF;" d="M247.082,478.878h0.417v3.586h2.21v0.361h-2.627V478.878z"/>
		<path style="fill:#FFFFFF;" d="M260.449,479.239v1.551h2.041v0.361h-2.041v1.675h-0.417v-3.947h2.706v0.361H260.449z"/>
		<path style="fill:#FFFFFF;" d="M267.678,478.878h0.417v3.947h-0.417V478.878z"/>
		<path style="fill:#FFFFFF;" d="M273.456,478.878h0.417v3.586h2.21v0.361h-2.627V478.878z"/>
		<path style="fill:#FFFFFF;" d="M283.644,482.464v0.361h-2.791v-3.947h2.706v0.361h-2.289v1.404h2.041v0.355h-2.041v1.466H283.644z
			"/>
		<path style="fill:#FFFFFF;" d="M294.672,479.239v1.551h2.041v0.361h-2.041v1.675h-0.417v-3.947h2.706v0.361H294.672z"/>
		<path style="fill:#FFFFFF;" d="M301.5,480.851c0-1.15,0.879-2.007,2.075-2.007c1.184,0,2.069,0.851,2.069,2.007
			c0,1.156-0.885,2.007-2.069,2.007C302.379,482.858,301.5,482.002,301.5,480.851z M305.226,480.851
			c0-0.942-0.705-1.635-1.652-1.635c-0.953,0-1.663,0.693-1.663,1.635c0,0.941,0.71,1.635,1.663,1.635
			C304.522,482.486,305.226,481.793,305.226,480.851z"/>
		<path style="fill:#FFFFFF;" d="M313.351,482.825l-0.902-1.269c-0.102,0.011-0.203,0.017-0.316,0.017h-1.06v1.252h-0.417v-3.947
			h1.477c1.004,0,1.613,0.507,1.613,1.353c0,0.62-0.327,1.054-0.902,1.24l0.964,1.353H313.351z M313.328,480.231
			c0-0.632-0.417-0.992-1.207-0.992h-1.048v1.979h1.048C312.911,481.218,313.328,480.851,313.328,480.231z"/>
		<path style="fill:#FFFFFF;" d="M322.907,478.878v3.947h-0.4v-3.158l-1.551,2.656h-0.197l-1.551-2.639v3.14h-0.4v-3.947h0.344
			l1.714,2.926l1.697-2.926H322.907z"/>
		<path style="fill:#FFFFFF;" d="M330.744,481.77h-2.199l-0.473,1.054h-0.434l1.804-3.947h0.411l1.804,3.947h-0.44L330.744,481.77z
			 M330.592,481.432l-0.947-2.12l-0.947,2.12H330.592z"/>
		<path style="fill:#FFFFFF;" d="M336.957,479.239h-1.387v-0.361h3.192v0.361h-1.387v3.586h-0.417V479.239z"/>
		<path style="fill:#FFFFFF;" d="M343.063,482.346l0.164-0.321c0.282,0.276,0.784,0.479,1.302,0.479c0.739,0,1.06-0.31,1.06-0.699
			c0-1.083-2.43-0.417-2.43-1.877c0-0.581,0.451-1.083,1.455-1.083c0.446,0,0.908,0.13,1.224,0.35l-0.141,0.333
			c-0.338-0.22-0.733-0.327-1.083-0.327c-0.722,0-1.043,0.321-1.043,0.716c0,1.083,2.43,0.429,2.43,1.866
			c0,0.581-0.462,1.077-1.472,1.077C343.937,482.858,343.356,482.65,343.063,482.346z"/>
	</g>
</g>
<g>
</g>
<g>
	<g>
		<g>
			<path d="M466.941,394.593H33.06c-4.077,0-7.382-3.305-7.382-7.382V272.289c0-4.077,3.305-7.382,7.382-7.382h433.882
				c4.077,0,7.382,3.305,7.382,7.382v114.923C474.323,391.288,471.018,394.593,466.941,394.593z"/>
			<path style="fill:#A6A8AB;" d="M458.99,396.27H41.01c-9.379,0-17.01-7.631-17.01-17.01v-99.02c0-9.381,7.631-17.012,17.01-17.012
				h417.98c9.379,0,17.01,7.631,17.01,17.012v99.02C476,388.639,468.369,396.27,458.99,396.27z M41.01,266.583
				c-7.529,0-13.655,6.126-13.655,13.657v99.02c0,7.529,6.126,13.655,13.655,13.655h417.98c7.529,0,13.655-6.126,13.655-13.655
				v-99.02c0-7.531-6.126-13.657-13.655-13.657H41.01z"/>
		</g>
		<g>
			<path style="fill:#FFFFFF;" d="M252.012,335.986c-7.858,0-14.263,5.974-14.263,14.208c0,8.181,6.404,14.209,14.263,14.209
				c7.858,0,14.262-6.028,14.262-14.209C266.274,341.96,259.869,335.986,252.012,335.986z M252.012,358.806
				c-4.306,0-8.019-3.552-8.019-8.611c0-5.113,3.714-8.611,8.019-8.611c4.305,0,8.019,3.498,8.019,8.611
				C260.031,355.254,256.317,358.806,252.012,358.806z M220.898,335.986c-7.858,0-14.263,5.974-14.263,14.208
				c0,8.181,6.405,14.209,14.263,14.209c7.858,0,14.262-6.028,14.262-14.209C235.161,341.96,228.756,335.986,220.898,335.986z
				 M220.898,358.806c-4.306,0-8.019-3.552-8.019-8.611c0-5.113,3.714-8.611,8.019-8.611c4.306,0,8.019,3.498,8.019,8.611
				C228.917,355.254,225.204,358.806,220.898,358.806z M183.887,340.346v6.028h14.424c-0.431,3.391-1.561,5.866-3.283,7.589
				c-2.099,2.099-5.382,4.413-11.141,4.413c-8.88,0-15.823-7.158-15.823-16.038s6.943-16.038,15.823-16.038
				c4.79,0,8.289,1.884,10.872,4.306l4.252-4.252c-3.606-3.444-8.396-6.082-15.124-6.082c-12.163,0-22.39,9.903-22.39,22.066
				c0,12.164,10.226,22.067,22.39,22.067c6.566,0,11.518-2.153,15.393-6.189c3.983-3.983,5.221-9.58,5.221-14.101
				c0-1.399-0.108-2.691-0.323-3.767H183.887z M335.249,345.028c-1.184-3.175-4.79-9.042-12.163-9.042
				c-7.32,0-13.401,5.759-13.401,14.208c0,7.966,6.028,14.209,14.101,14.209c6.512,0,10.28-3.983,11.84-6.297l-4.844-3.229
				c-1.615,2.368-3.821,3.929-6.996,3.929c-3.176,0-5.436-1.453-6.889-4.306l18.999-7.858L335.249,345.028z M315.874,349.764
				c-0.162-5.49,4.252-8.288,7.427-8.288c2.476,0,4.575,1.238,5.275,3.014L315.874,349.764z M300.427,363.542h6.243v-41.764h-6.243
				V363.542z M290.201,339.162h-0.215c-1.399-1.668-4.09-3.175-7.481-3.175c-7.104,0-13.616,6.243-13.616,14.262
				c0,7.966,6.512,14.155,13.616,14.155c3.391,0,6.082-1.507,7.481-3.229h0.215v2.045c0,5.436-2.906,8.342-7.589,8.342
				c-3.821,0-6.189-2.745-7.158-5.059l-5.436,2.261c1.561,3.767,5.705,8.396,12.594,8.396c7.32,0,13.509-4.306,13.509-14.801
				v-25.511h-5.92V339.162z M283.044,358.806c-4.306,0-7.912-3.606-7.912-8.558c0-5.005,3.606-8.665,7.912-8.665
				c4.252,0,7.588,3.66,7.588,8.665C290.632,355.2,287.295,358.806,283.044,358.806z M364.493,321.778h-14.937v41.764h6.233v-15.823
				h8.704c6.91,0,13.701-5.002,13.701-12.97C378.194,326.781,371.403,321.778,364.493,321.778z M364.654,341.907h-8.865v-14.316
				h8.865c4.661,0,7.307,3.859,7.307,7.158C371.961,337.986,369.315,341.907,364.654,341.907z M403.178,335.909
				c-4.513,0-9.188,1.988-11.122,6.394l5.534,2.31c1.182-2.31,3.385-3.063,5.695-3.063c3.224,0,6.501,1.934,6.555,5.373v0.43
				c-1.128-0.645-3.546-1.612-6.501-1.612c-5.964,0-12.035,3.278-12.035,9.403c0,5.588,4.889,9.188,10.37,9.188
				c4.191,0,6.501-1.881,7.952-4.083h0.215v3.224h6.018v-16.011C415.858,340.046,410.324,335.909,403.178,335.909z M402.426,358.798
				c-2.042,0-4.889-1.021-4.889-3.546c0-3.224,3.546-4.46,6.609-4.46c2.74,0,4.03,0.591,5.695,1.397
				C409.357,356.058,406.026,358.798,402.426,358.798z M437.78,336.823l-7.146,18.107h-0.215l-7.414-18.107h-6.716l11.122,25.307
				l-6.34,14.077h6.501l17.14-39.384H437.78z M381.633,363.542h6.232v-41.764h-6.232V363.542z"/>
			<g>
				<path style="fill:#5BC8F3;" d="M59.25,288.534c-0.972,1.027-1.545,2.622-1.545,4.69v73.822c0,2.068,0.573,3.662,1.545,4.69
					l0.247,0.241l41.353-41.354v-0.488v-0.488l-41.353-41.354L59.25,288.534z"/>
				<linearGradient id="SVGID_1_" gradientUnits="userSpaceOnUse" x1="128.2483" y1="330.1355" x2="47.4805" y2="330.1355">
					<stop  offset="0" style="stop-color:#FFDF00"/>
					<stop  offset="0.4087" style="stop-color:#FBBC0E"/>
					<stop  offset="0.7754" style="stop-color:#F9A418"/>
					<stop  offset="1" style="stop-color:#F89B1C"/>
				</linearGradient>
				<path style="fill:url(#SVGID_1_);" d="M114.634,344.412l-13.783-13.79v-0.488v-0.488l13.788-13.788l0.311,0.177l16.332,9.28
					c4.665,2.651,4.665,6.988,0,9.638l-16.332,9.28L114.634,344.412z"/>
				
					<linearGradient id="SVGID_00000118388271705020639310000008390540325806731963_" gradientUnits="userSpaceOnUse" x1="107.288" y1="337.7951" x2="31.3222" y2="413.7609">
					<stop  offset="0" style="stop-color:#EE4447"/>
					<stop  offset="1" style="stop-color:#C5166C"/>
				</linearGradient>
				<path style="fill:url(#SVGID_00000118388271705020639310000008390540325806731963_);" d="M114.949,344.233l-14.098-14.099
					l-41.6,41.601c1.538,1.628,4.077,1.829,6.937,0.204L114.949,344.233"/>
				
					<linearGradient id="SVGID_00000067196221384518587970000003436479926713763727_" gradientUnits="userSpaceOnUse" x1="30.9837" y1="246.169" x2="93.0078" y2="308.1931">
					<stop  offset="0" style="stop-color:#269E6F"/>
					<stop  offset="0.0509" style="stop-color:#2BA06F"/>
					<stop  offset="0.4663" style="stop-color:#53B26B"/>
					<stop  offset="0.7971" style="stop-color:#6BBD69"/>
					<stop  offset="1" style="stop-color:#74C168"/>
				</linearGradient>
				<path style="fill:url(#SVGID_00000067196221384518587970000003436479926713763727_);" d="M114.949,316.035l-48.762-27.706
					c-2.86-1.625-5.398-1.423-6.937,0.204l41.6,41.601L114.949,316.035z"/>
			</g>
		</g>
		<g>
			<path style="fill:#FFFFFF;" d="M177.548,290.895c-1.255-1.111-2.909-1.826-4.734-1.826c-4.107,0-7.274,3.394-7.274,7.56
				c0,4.164,3.166,7.529,7.274,7.529c3.537,0,6.103-2.053,6.275-5.306h-5.59v-2.31h8.614c0,6.905-3.68,10.156-9.298,10.156
				c-5.591,0-9.927-4.507-9.927-10.069c0-5.592,4.336-10.099,9.927-10.099c2.596,0,4.934,1,6.646,2.596L177.548,290.895z"/>
			<path style="fill:#FFFFFF;" d="M197.376,286.759v2.481h-8.986v6.276h7.845v2.483h-7.845v5.933h9.271v2.481h-11.923v-19.653
				H197.376z"/>
			<path style="fill:#FFFFFF;" d="M214.578,286.759v2.509h-5.962v17.144h-2.68v-17.144h-5.962v-2.509H214.578z"/>
			<path style="fill:#FFFFFF;" d="M227.304,286.759v19.653h-2.652v-19.653H227.304z"/>
			<path style="fill:#FFFFFF;" d="M245.389,286.759v2.509h-5.961v17.144h-2.68v-17.144h-5.962v-2.509H245.389z"/>
			<path style="fill:#FFFFFF;" d="M264.105,286.53c5.619,0,9.984,4.507,9.984,10.099c0,5.562-4.365,10.069-9.984,10.069
				c-5.59,0-9.927-4.507-9.927-10.069C254.178,291.037,258.515,286.53,264.105,286.53z M264.105,304.13
				c4.136,0,7.302-3.337,7.302-7.501c0-4.166-3.166-7.531-7.302-7.531c-4.107,0-7.274,3.365-7.274,7.531
				C256.831,300.794,259.998,304.13,264.105,304.13z"/>
			<path style="fill:#FFFFFF;" d="M289.78,306.412l-8.955-14.803v14.803h-2.653v-19.653h2.625l8.87,14.69v-14.69h2.653v19.653
				H289.78z"/>
		</g>
	</g>
	<g>
		<g>
			<path d="M466.941,235.094H33.059c-4.077,0-7.382-3.305-7.382-7.382V112.79c0-4.077,3.305-7.382,7.382-7.382h433.882
				c4.077,0,7.382,3.305,7.382,7.382v114.923C474.323,231.789,471.018,235.094,466.941,235.094z"/>
			<path style="fill:#A6A8AB;" d="M458.99,236.772H41.01c-9.379,0-17.01-7.631-17.01-17.01v-99.021
				c0-9.379,7.631-17.011,17.01-17.011h417.98c9.379,0,17.01,7.632,17.01,17.011v99.021C476,229.141,468.369,236.772,458.99,236.772
				z M41.01,107.085c-7.529,0-13.655,6.126-13.655,13.656v99.021c0,7.529,6.126,13.655,13.655,13.655h417.98
				c7.529,0,13.655-6.126,13.655-13.655v-99.021c0-7.53-6.126-13.656-13.655-13.656H41.01z"/>
		</g>
		<g>
			<path style="fill:#FFFFFF;" d="M174.481,141.564l-1.881,6.193h-4.118l7.004-21.853h5.09l7.1,21.853h-4.28l-1.978-6.193H174.481z
				 M180.738,138.548l-1.719-5.382c-0.421-1.33-0.778-2.821-1.102-4.085h-0.065c-0.323,1.265-0.648,2.788-1.038,4.085l-1.686,5.382
				H180.738z"/>
			<path style="fill:#FFFFFF;" d="M193.637,131.966l2.561,8.009c0.454,1.393,0.778,2.658,1.07,3.955h0.097
				c0.292-1.297,0.648-2.529,1.07-3.955l2.528-8.009h4.182l-6.03,15.79h-3.923l-5.868-15.79H193.637z"/>
			<path style="fill:#FFFFFF;" d="M221.061,143.963c0,1.426,0.065,2.82,0.26,3.793h-3.599l-0.291-1.751h-0.097
				c-0.94,1.231-2.594,2.107-4.669,2.107c-3.177,0-4.96-2.302-4.96-4.702c0-3.955,3.535-5.998,9.37-5.966v-0.26
				c0-1.037-0.422-2.756-3.21-2.756c-1.556,0-3.178,0.486-4.247,1.168l-0.778-2.594c1.167-0.713,3.21-1.394,5.706-1.394
				c5.059,0,6.517,3.209,6.517,6.679V143.963z M217.171,140.039c-2.82-0.032-5.512,0.552-5.512,2.951
				c0,1.556,1.005,2.269,2.27,2.269c1.621,0,2.755-1.037,3.145-2.172c0.097-0.291,0.097-0.583,0.097-0.875V140.039z"/>
			<path style="fill:#FFFFFF;" d="M228.676,129.696c-1.33,0-2.205-0.972-2.205-2.14c0-1.231,0.908-2.171,2.237-2.171
				c1.362,0,2.205,0.94,2.237,2.171c0,1.167-0.875,2.14-2.237,2.14H228.676z M226.698,147.756v-15.79h3.988v15.79H226.698z"/>
			<path style="fill:#FFFFFF;" d="M236.423,124.704h3.988v23.053h-3.988V124.704z"/>
			<path style="fill:#FFFFFF;" d="M258.436,143.963c0,1.426,0.065,2.82,0.258,3.793h-3.598l-0.292-1.751h-0.097
				c-0.939,1.231-2.592,2.107-4.668,2.107c-3.177,0-4.96-2.302-4.96-4.702c0-3.955,3.534-5.998,9.369-5.966v-0.26
				c0-1.037-0.42-2.756-3.209-2.756c-1.556,0-3.177,0.486-4.247,1.168l-0.778-2.594c1.168-0.713,3.21-1.394,5.707-1.394
				c5.057,0,6.517,3.209,6.517,6.679V143.963z M254.543,140.039c-2.819-0.032-5.511,0.552-5.511,2.951
				c0,1.556,1.005,2.269,2.27,2.269c1.621,0,2.757-1.037,3.144-2.172c0.097-0.291,0.097-0.583,0.097-0.875V140.039z"/>
			<path style="fill:#FFFFFF;" d="M264.073,124.704h3.988v9.435h0.065c0.974-1.523,2.692-2.528,5.059-2.528
				c3.858,0,6.613,3.209,6.58,8.008c0,5.673-3.598,8.495-7.164,8.495c-2.043,0-3.858-0.779-4.994-2.724h-0.065l-0.195,2.367h-3.403
				c0.065-1.07,0.13-2.82,0.13-4.41V124.704z M268.06,141.239c0,0.324,0.032,0.649,0.097,0.94c0.422,1.622,1.815,2.789,3.533,2.789
				c2.497,0,4.02-1.978,4.02-5.188c0-2.789-1.329-5.058-3.988-5.058c-1.621,0-3.112,1.166-3.534,2.918
				c-0.065,0.291-0.13,0.648-0.13,1.037V141.239z"/>
			<path style="fill:#FFFFFF;" d="M284.46,124.704h3.988v23.053h-3.988V124.704z"/>
			<path style="fill:#FFFFFF;" d="M297.038,140.98c0.097,2.853,2.333,4.085,4.862,4.085c1.848,0,3.146-0.292,4.377-0.714
				l0.584,2.724c-1.361,0.583-3.244,1.005-5.511,1.005c-5.124,0-8.14-3.145-8.14-7.977c0-4.376,2.659-8.494,7.718-8.494
				c5.122,0,6.807,4.215,6.807,7.684c0,0.745-0.065,1.33-0.128,1.687H297.038z M303.975,138.191
				c0.032-1.459-0.615-3.858-3.274-3.858c-2.464,0-3.501,2.237-3.663,3.858H303.975z"/>
			<path style="fill:#FFFFFF;" d="M327.411,148.113c-4.442,0-7.913-3.047-7.913-8.138c0-5.189,3.406-8.365,8.172-8.365
				c4.7,0,7.846,3.306,7.846,8.106c0,5.803-4.085,8.397-8.073,8.397H327.411z M327.541,145.227c2.268,0,3.858-2.204,3.858-5.414
				c0-2.465-1.103-5.318-3.826-5.318c-2.822,0-3.957,2.756-3.957,5.382c0,3.048,1.525,5.349,3.892,5.349H327.541z"/>
			<path style="fill:#FFFFFF;" d="M340.212,136.668c0-1.816-0.065-3.34-0.13-4.702h3.469l0.195,2.367h0.097
				c0.714-1.232,2.432-2.723,5.059-2.723c2.755,0,5.608,1.783,5.608,6.776v9.37h-3.988v-8.916c0-2.27-0.844-3.989-3.016-3.989
				c-1.588,0-2.69,1.135-3.111,2.335c-0.13,0.325-0.195,0.81-0.195,1.265v9.305h-3.988V136.668z"/>
			<path style="fill:#FFFFFF;" d="M372.885,127.913v4.053h3.793v2.983h-3.793v6.939c0,1.945,0.519,2.918,2.043,2.918
				c0.712,0,1.101-0.033,1.556-0.162l0.065,3.015c-0.584,0.227-1.653,0.422-2.886,0.422c-1.491,0-2.69-0.487-3.436-1.297
				c-0.876-0.908-1.264-2.367-1.264-4.442v-7.392h-2.237v-2.983h2.237v-2.95L372.885,127.913z"/>
			<path style="fill:#FFFFFF;" d="M381.118,124.704h3.988v9.403h0.065c0.487-0.745,1.166-1.362,1.978-1.783
				c0.811-0.454,1.751-0.713,2.757-0.713c2.69,0,5.511,1.783,5.511,6.841v9.305h-3.988v-8.883c0-2.27-0.844-4.021-3.049-4.021
				c-1.556,0-2.657,1.037-3.111,2.237c-0.13,0.357-0.162,0.779-0.162,1.2v9.467h-3.988V124.704z"/>
			<path style="fill:#FFFFFF;" d="M403.905,140.98c0.097,2.853,2.333,4.085,4.862,4.085c1.848,0,3.146-0.292,4.377-0.714
				l0.584,2.724c-1.361,0.583-3.243,1.005-5.511,1.005c-5.124,0-8.14-3.145-8.14-7.977c0-4.376,2.659-8.494,7.718-8.494
				c5.122,0,6.807,4.215,6.807,7.684c0,0.745-0.065,1.33-0.128,1.687H403.905z M410.842,138.191
				c0.032-1.459-0.615-3.858-3.274-3.858c-2.464,0-3.501,2.237-3.663,3.858H410.842z"/>
		</g>
		<g>
			<g>
				<path style="fill:#FFFFFF;" d="M124.874,168.952c-0.101-10.813,8.856-16.078,9.265-16.321c-5.068-7.4-12.933-8.406-15.694-8.487
					c-6.599-0.692-13.004,3.956-16.36,3.956c-3.429,0-8.618-3.885-14.192-3.773c-7.183,0.116-13.904,4.273-17.585,10.727
					c-7.602,13.165-1.933,32.51,5.35,43.158c3.646,5.209,7.905,11.03,13.478,10.822c5.451-0.227,7.486-3.473,14.07-3.473
					c6.524,0,8.437,3.473,14.122,3.343c5.852-0.096,9.533-5.236,13.049-10.496c4.217-5.972,5.907-11.854,5.973-12.158
					C136.213,186.204,124.985,181.92,124.874,168.952"/>
				<path style="fill:#FFFFFF;" d="M114.133,137.145c2.933-3.667,4.945-8.661,4.379-13.723c-4.243,0.188-9.548,2.934-12.604,6.524
					c-2.706,3.161-5.128,8.345-4.501,13.216C106.181,143.517,111.072,140.755,114.133,137.145"/>
			</g>
			<g>
				<path style="fill:#FFFFFF;" d="M203.687,208.175h-7.595l-4.164-13.084h-14.462l-3.969,13.084h-7.397l14.341-44.529h8.845
					L203.687,208.175z M190.677,189.603l-3.761-11.628c-0.404-1.185-1.15-3.984-2.249-8.385h-0.132
					c-0.442,1.896-1.149,4.69-2.118,8.385l-3.7,11.628H190.677z"/>
				<path style="fill:#FFFFFF;" d="M240.553,191.721c0,5.461-1.473,9.778-4.427,12.95c-2.643,2.819-5.926,4.225-9.839,4.225
					c-4.23,0-7.271-1.523-9.121-4.558h-0.126v16.911h-7.14v-34.616c0-3.433-0.086-6.952-0.263-10.569h6.273l0.398,5.089h0.136
					c2.376-3.834,5.991-5.749,10.832-5.749c3.781,0,6.949,1.499,9.48,4.494C239.287,182.898,240.553,186.836,240.553,191.721
					 M233.286,191.983c0-3.126-0.706-5.702-2.113-7.73c-1.543-2.112-3.615-3.172-6.207-3.172c-1.765,0-3.368,0.59-4.79,1.75
					c-1.433,1.176-2.37,2.702-2.809,4.598c-0.222,0.883-0.328,1.604-0.328,2.173v5.355c0,2.335,0.711,4.306,2.139,5.909
					c1.437,1.615,3.297,2.411,5.586,2.411c2.688,0,4.781-1.028,6.273-3.101C232.54,198.104,233.286,195.377,233.286,191.983"/>
				<path style="fill:#FFFFFF;" d="M277.478,191.721c0,5.461-1.472,9.778-4.427,12.95c-2.642,2.819-5.919,4.225-9.842,4.225
					c-4.226,0-7.261-1.523-9.112-4.558h-0.131v16.911h-7.135v-34.616c0-3.433-0.091-6.952-0.262-10.569h6.272l0.399,5.089h0.137
					c2.369-3.834,5.979-5.749,10.829-5.749c3.783,0,6.945,1.499,9.48,4.494C276.217,182.898,277.478,186.836,277.478,191.721
					 M270.217,191.983c0-3.126-0.706-5.702-2.119-7.73c-1.543-2.112-3.61-3.172-6.207-3.172c-1.765,0-3.364,0.59-4.79,1.75
					c-1.431,1.176-2.365,2.702-2.803,4.598c-0.227,0.883-0.333,1.604-0.333,2.173v5.355c0,2.335,0.71,4.306,2.143,5.909
					c1.433,1.615,3.289,2.411,5.587,2.411c2.682,0,4.78-1.028,6.273-3.101C269.46,198.104,270.217,195.377,270.217,191.983"/>
				<path style="fill:#FFFFFF;" d="M318.77,195.685c0,3.787-1.311,6.868-3.958,9.249c-2.9,2.602-6.939,3.896-12.123,3.896
					c-4.789,0-8.636-0.923-11.546-2.771l1.654-5.946c3.136,1.895,6.57,2.838,10.316,2.838c2.688,0,4.78-0.604,6.282-1.814
					c1.494-1.215,2.24-2.839,2.24-4.866c0-1.805-0.616-3.333-1.846-4.565c-1.231-1.239-3.288-2.383-6.152-3.443
					c-7.796-2.914-11.687-7.17-11.687-12.771c0-3.662,1.361-6.663,4.095-8.996c2.727-2.34,6.362-3.514,10.901-3.514
					c4.053,0,7.422,0.71,10.105,2.116l-1.78,5.814c-2.512-1.362-5.35-2.047-8.526-2.047c-2.511,0-4.468,0.614-5.875,1.85
					c-1.183,1.1-1.78,2.446-1.78,4.03c0,1.759,0.677,3.217,2.043,4.356c1.185,1.059,3.344,2.204,6.474,3.44
					c3.832,1.543,6.645,3.347,8.456,5.414C317.866,190.028,318.77,192.604,318.77,195.685"/>
				<path style="fill:#FFFFFF;" d="M342.354,181.415h-7.861v15.591c0,3.964,1.386,5.945,4.166,5.945c1.269,0,2.328-0.11,3.165-0.328
					l0.196,5.416c-1.401,0.528-3.256,0.791-5.545,0.791c-2.82,0-5.023-0.857-6.606-2.571c-1.584-1.719-2.379-4.609-2.379-8.658
					v-16.187h-4.691v-5.354h4.691v-5.875l7.003-2.118v7.993h7.861V181.415z"/>
				<path style="fill:#FFFFFF;" d="M377.832,191.853c0,4.935-1.407,8.985-4.226,12.157c-2.956,3.262-6.877,4.886-11.759,4.886
					c-4.719,0-8.466-1.563-11.265-4.691c-2.798-3.126-4.195-7.068-4.195-11.818c0-4.983,1.438-9.056,4.327-12.222
					c2.88-3.177,6.767-4.761,11.658-4.761c4.709,0,8.502,1.564,11.364,4.691C376.47,183.139,377.832,187.052,377.832,191.853
					 M370.43,192.084c0-2.959-0.636-5.496-1.917-7.618c-1.492-2.562-3.63-3.844-6.403-3.844c-2.87,0-5.048,1.282-6.541,3.844
					c-1.28,2.122-1.91,4.704-1.91,7.755c0,2.959,0.63,5.496,1.91,7.614c1.538,2.561,3.697,3.841,6.48,3.841
					c2.722,0,4.862-1.3,6.399-3.908C369.769,197.606,370.43,195.045,370.43,192.084"/>
				<path style="fill:#FFFFFF;" d="M401.016,182.338c-0.705-0.126-1.451-0.196-2.243-0.196c-2.506,0-4.452,0.953-5.819,2.844
					c-1.185,1.675-1.78,3.788-1.78,6.339v16.846h-7.13l0.061-21.995c0-3.701-0.091-7.071-0.261-10.111h6.211l0.263,6.147h0.192
					c0.751-2.113,1.946-3.812,3.57-5.088c1.583-1.145,3.308-1.721,5.158-1.721c0.655,0,1.255,0.045,1.779,0.127V182.338z"/>
				<path style="fill:#FFFFFF;" d="M432.92,190.597c0,1.282-0.086,2.355-0.257,3.238h-21.4c0.081,3.171,1.119,5.596,3.101,7.271
					c1.8,1.498,4.139,2.238,7.004,2.238c3.16,0,6.05-0.504,8.652-1.517l1.119,4.956c-3.035,1.321-6.625,1.986-10.771,1.986
					c-4.972,0-8.885-1.468-11.724-4.398c-2.834-2.925-4.26-6.862-4.26-11.793c0-4.841,1.32-8.874,3.968-12.092
					c2.768-3.434,6.515-5.148,11.224-5.148c4.624,0,8.134,1.714,10.515,5.148C431.977,183.22,432.92,186.588,432.92,190.597
					 M426.118,188.746c0.051-2.109-0.414-3.938-1.382-5.481c-1.235-1.982-3.137-2.974-5.688-2.974c-2.329,0-4.225,0.973-5.677,2.909
					c-1.19,1.543-1.896,3.388-2.108,5.546H426.118z"/>
			</g>
		</g>
	</g>
</g>
</svg>
